<?xml version="1.0" encoding="utf-8"?>
<!-- Generator: Adobe Illustrator 26.3.1, SVG Export Plug-In . SVG Version: 6.00 Build 0)  -->
<svg version="1.1" id="_59" xmlns="http://www.w3.org/2000/svg" xmlns:xlink="http://www.w3.org/1999/xlink" x="0px" y="0px"
	 viewBox="0 0 70.8 69.7" style="enable-background:new 0 0 70.8 69.7;" xml:space="preserve">
<style type="text/css">
	.st0{fill-rule:evenodd;clip-rule:evenodd;fill:#423B6E;}
</style>
<path class="st0" d="M31.3,11.9c0-15.8-18.7-15.8-18.7,0c0,5.2,6.1,5.2,6.1,0c0-5.4,6.4-5.4,6.4,0C25.1,17.1,31.3,17.1,31.3,11.9z"
	/>
<path class="st0" d="M58.4,11.9c0-15.8-18.7-15.8-18.7,0c0,5.2,6.2,5.2,6.2,0c0-5.4,6.1-5.4,6.1,0C52.1,17.1,58.4,17.1,58.4,11.9z"
	/>
<path class="st0" d="M64.8,31.2c-6.4,39.9-51.2,41.1-58.6,1.2c-0.9-5.2-7.1-3.3-6.1,1.7c9,48.4,63.1,47,70.6-1.4
	c0.5-1.9-0.5-4-2.4-4.7C66.7,27.7,65,28.9,64.8,31.2z"/>
</svg>
